<svg id="color" enable-background="new 0 0 24 24" height="512" viewBox="0 0 24 24" width="512" xmlns="http://www.w3.org/2000/svg"><circle cx="12" cy="12" fill="#ffd54f" r="12"/><path d="m12 0c-6.627 0-12 5.373-12 12 0 6.627 5.373 12 12 12v-6-1.5z" fill="#deb945"/><circle cx="17" cy="9" fill="#6d4c41" r="2"/><path d="m19.362 14.316c-.141-.198-.369-.316-.612-.316h-13.5c-.243 0-.471.118-.612.316-.141.199-.176.453-.096.682 1.107 3.16 4.104 5.282 7.458 5.282s6.351-2.123 7.458-5.282c.08-.229.044-.483-.096-.682z" fill="#e53935"/><path d="m12 14h-6.75c-.243 0-.471.118-.612.316-.141.199-.176.453-.096.682 1.107 3.16 4.104 5.282 7.458 5.282z" fill="#c7322e"/><path d="m17 7c-1.103 0-2 .897-2 2s.897 2 2 2z" fill="#5f4239"/><path d="m17.23 1.19-16.9 13.62c-.13-.55-.23-1.12-.28-1.7l15.57-12.55c.56.17 1.09.38 1.61.63z" fill="#455a64"/><path d="m12.25 6h-8.5c-.414 0-.75.336-.75.75 0 2.757 2.243 5 5 5s5-2.243 5-5c0-.414-.336-.75-.75-.75z" fill="#455a64"/><g fill="#3c4e57"><path d="m4.085 9.857-4.035 3.253c.05.58.15 1.15.28 1.7l4.866-3.922c-.42-.286-.795-.634-1.111-1.031z"/><path d="m8 6h-4.25c-.414 0-.75.336-.75.75 0 1.173.406 2.253 1.085 3.107.316.397.691.745 1.111 1.031.801.544 1.766.862 2.804.862z"/></g></svg>