<svg width="160" height="63" viewBox="0 0 160 63" fill="none" xmlns="http://www.w3.org/2000/svg">
<rect width="50.7608" height="22.5573" rx="11.2787" transform="matrix(-0.370483 -0.928839 0.905945 -0.423395 19.521 59.8824)" stroke="url(#paint0_linear_272_1543)" stroke-width="8"/>
<rect width="48.6752" height="23.598" rx="11.799" transform="matrix(0.628251 -0.778011 0.712813 0.701354 9.53979 44.3987)" stroke="url(#paint1_linear_272_1543)" stroke-width="8"/>
<path d="M80.4072 24.1291C80.4072 21.7024 79.5905 20.4891 77.9572 20.4891C76.3238 20.4891 74.6555 21.7491 72.9522 24.2691C71.2488 26.7658 69.8722 29.6708 68.8222 32.9841C67.7722 36.2508 67.2472 39.0624 67.2472 41.4191C67.2472 42.8424 67.5038 43.8924 68.0172 44.5691C68.5538 45.2691 69.4172 45.6191 70.6072 45.6191C72.4505 45.6191 74.2705 44.9774 76.0672 43.6941C77.9105 42.4108 79.4622 40.8708 80.7222 39.0741C80.8622 39.2841 80.9322 39.5874 80.9322 39.9841C80.9555 40.3574 80.8972 40.6374 80.7572 40.8241C80.0572 41.7574 79.1938 42.7374 78.1672 43.7641C77.1638 44.7208 75.8572 45.6658 74.2472 46.5991C72.6138 47.5324 71.0505 47.9991 69.5572 47.9991C67.6205 47.9991 66.1038 47.2641 65.0072 45.7941C63.9338 44.3241 63.3972 42.3408 63.3972 39.8441C63.3972 36.6008 64.0972 33.0658 65.4972 29.2391C66.2205 27.3024 67.0605 25.5058 68.0172 23.8491C69.0438 22.1691 70.2572 20.8158 71.6572 19.7891C73.0805 18.7624 74.5505 18.2491 76.0672 18.2491C77.5838 18.2491 78.5988 18.5641 79.1122 19.1941C80.3489 19.2641 81.3055 19.6608 81.9822 20.3841C82.6822 21.1074 83.0322 22.0758 83.0322 23.2891C83.0322 24.7358 82.6355 26.1008 81.8422 27.3841C81.0722 28.6674 80.0922 29.3091 78.9022 29.3091C79.9055 27.9324 80.4072 26.2058 80.4072 24.1291ZM95.5994 41.2791C94.6194 42.6324 93.5927 43.7291 92.5194 44.5691C91.4694 45.4324 90.536 45.8641 89.7194 45.8641C89.0427 45.8641 88.4944 45.6191 88.0744 45.1291C87.6777 44.6391 87.4794 43.9274 87.4794 42.9941C87.4794 42.3174 87.526 41.7574 87.6194 41.3141C86.126 43.8574 84.5044 45.1291 82.7544 45.1291C81.8677 45.1291 81.191 44.7908 80.7244 44.1141C80.281 43.4374 80.0594 42.5391 80.0594 41.4191C80.0594 39.2724 80.771 37.3474 82.1944 35.6441C83.641 33.9174 85.1577 33.0541 86.7444 33.0541C87.561 33.0541 88.3194 33.4158 89.0194 34.1391C89.1127 33.4158 89.1594 32.9374 89.1594 32.7041C89.696 32.4708 90.2677 32.3541 90.8744 32.3541C92.2744 32.3541 92.9744 33.0074 92.9744 34.3141C92.9744 35.3408 92.5077 36.7991 91.5744 38.6891C90.641 40.5791 90.1744 42.0608 90.1744 43.1341C90.1744 43.7874 90.3727 44.1141 90.7694 44.1141C91.446 44.1141 92.3794 43.5191 93.5694 42.3291C94.3627 41.5358 95.261 40.4274 96.2644 39.0041C96.451 39.1674 96.5327 39.3541 96.5094 39.5641C96.5094 39.7508 96.4627 39.9258 96.3694 40.0891C96.276 40.2524 96.136 40.4624 95.9494 40.7191C95.786 40.9524 95.6694 41.1391 95.5994 41.2791ZM83.4194 43.2041C84.3994 43.2041 85.4494 42.3291 86.5694 40.5791C87.666 38.8524 88.4477 36.9974 88.9144 35.0141C88.401 35.0141 87.911 35.0958 87.4444 35.2591C86.3944 35.6791 85.496 36.5074 84.7494 37.7441C84.0027 38.9808 83.571 40.4041 83.4544 42.0141C83.431 42.1774 83.4194 42.5741 83.4194 43.2041ZM105.486 32.5641C105.859 32.5641 106.174 32.6808 106.431 32.9141C106.688 33.1474 106.816 33.4624 106.816 33.8591C106.839 34.6758 106.443 35.7491 105.626 37.0791C104.833 38.3391 104.109 39.0391 103.456 39.1791C103.409 38.5958 103.444 37.8608 103.561 36.9741C103.678 36.0874 103.783 35.4924 103.876 35.1891C103.199 35.7258 102.628 36.2741 102.161 36.8341C101.624 37.4408 101.006 38.3158 100.306 39.4591C99.396 40.9291 98.451 42.8308 97.471 45.1641C96.7244 45.1641 96.176 45.0358 95.826 44.7791C95.4527 44.5224 95.2544 44.0558 95.231 43.3791C95.2077 42.4924 95.616 40.6491 96.456 37.8491C97.2727 35.2358 97.751 33.4741 97.891 32.5641C98.4977 32.3308 99.0694 32.2141 99.606 32.2141C100.773 32.2141 101.356 32.6924 101.356 33.6491C101.403 34.2324 100.948 35.7724 99.991 38.2691C100.621 37.0324 101.566 35.7141 102.826 34.3141C103.923 33.1474 104.809 32.5641 105.486 32.5641ZM117.36 40.3341C117.686 41.5708 117.231 42.7491 115.995 43.8691C114.758 44.9891 113.358 45.5491 111.795 45.5491C110.208 45.5491 108.995 45.0941 108.155 44.1841C107.338 43.2508 106.93 41.9908 106.93 40.4041C106.93 38.5141 107.548 36.7408 108.785 35.0841C110.045 33.4274 111.515 32.5991 113.195 32.5991C113.521 32.5991 113.825 32.6341 114.105 32.7041C114.431 32.4708 114.828 32.3541 115.295 32.3541C115.925 32.3541 116.438 32.5991 116.835 33.0891C117.231 33.5791 117.43 34.2324 117.43 35.0491C117.43 36.4724 116.858 37.7208 115.715 38.7941C114.548 39.8674 113.346 40.4858 112.11 40.6491C111.316 40.7424 110.826 40.6258 110.64 40.2991C111.876 39.9491 112.856 39.3308 113.58 38.4441C114.303 37.5574 114.665 36.6124 114.665 35.6091C114.665 35.3291 114.606 35.0141 114.49 34.6641C113.23 35.0841 112.203 35.9941 111.41 37.3941C110.593 38.8174 110.185 40.2058 110.185 41.5591C110.185 43.1458 110.85 43.9391 112.18 43.9391C113.02 43.9391 113.941 43.5658 114.945 42.8191C115.948 42.0724 116.753 41.2441 117.36 40.3341Z" fill="#F9880C"/>
<path d="M131.829 20.2091C130.475 20.1858 129.122 20.8858 127.769 22.3091C126.439 23.7091 125.75 25.3191 125.704 27.1391C125.68 28.0491 125.879 28.9124 126.299 29.7291C126.695 30.4991 127.127 31.1174 127.594 31.5841C128.2 32.1441 128.854 32.7041 129.554 33.2641C130.277 33.8241 130.965 34.4074 131.619 35.0141C132.132 35.4808 132.599 36.1574 133.019 37.0441C133.439 37.9074 133.637 38.7941 133.614 39.7041C133.59 41.7574 132.774 43.4608 131.164 44.8141C129.577 46.1674 127.652 46.8208 125.389 46.7741C123.289 46.7508 121.585 46.1558 120.279 44.9891C119.019 43.8224 118.389 42.5158 118.389 41.0691C118.389 39.5524 119.065 38.4324 120.419 37.7091C120.395 39.6691 121.515 41.3141 123.779 42.6441C125.295 43.4841 126.66 43.8924 127.874 43.8691C128.807 43.8924 129.53 43.6824 130.044 43.2391C130.557 42.7724 130.825 42.0724 130.849 41.1391C130.872 40.3924 130.639 39.7508 130.149 39.2141C129.775 38.7708 128.807 37.9774 127.244 36.8341L126.789 36.5191C125.389 35.4691 124.245 34.4074 123.359 33.3341C122.215 31.9108 121.667 30.2191 121.714 28.2591C121.737 25.5991 122.764 23.2541 124.794 21.2241C126.824 19.2408 128.935 18.2608 131.129 18.2841C132.832 18.3308 134.115 18.9841 134.979 20.2441C135.865 21.5508 136.309 23.0908 136.309 24.8641C136.309 26.9408 135.807 28.6208 134.804 29.9041C134.127 30.7208 133.415 31.1291 132.669 31.1291C132.132 31.1291 131.595 30.9308 131.059 30.5341C132.809 26.6141 133.684 23.8958 133.684 22.3791C133.684 20.9324 133.065 20.2091 131.829 20.2091ZM141.336 43.9391C142.526 43.9391 143.81 43.5074 145.186 42.6441C146.563 41.7808 147.8 40.6141 148.896 39.1441C149.293 39.9141 149.165 40.7308 148.511 41.5941C147.905 42.4574 147.1 43.2041 146.096 43.8341C144.393 44.9774 142.62 45.5491 140.776 45.5491C139.33 45.5491 138.175 45.0824 137.311 44.1491C136.448 43.1924 136.016 41.9441 136.016 40.4041C136.016 38.5141 136.635 36.7408 137.871 35.0841C139.131 33.4274 140.601 32.5991 142.281 32.5991C142.608 32.5991 142.911 32.6341 143.191 32.7041C143.518 32.4708 143.903 32.3541 144.346 32.3541C145 32.3541 145.525 32.5991 145.921 33.0891C146.318 33.5791 146.516 34.2324 146.516 35.0491C146.516 36.4724 145.945 37.7208 144.801 38.7941C143.635 39.8674 142.433 40.4858 141.196 40.6491C140.426 40.7424 139.925 40.6258 139.691 40.2991C140.928 39.9491 141.908 39.3308 142.631 38.4441C143.378 37.5574 143.751 36.6124 143.751 35.6091C143.751 35.3291 143.693 35.0141 143.576 34.6641C142.316 35.0608 141.278 35.9591 140.461 37.3591C139.668 38.7358 139.271 40.1474 139.271 41.5941C139.271 42.4108 139.435 43.0058 139.761 43.3791C140.088 43.7524 140.613 43.9391 141.336 43.9391ZM158.478 40.3341C158.804 41.5708 158.349 42.7491 157.113 43.8691C155.876 44.9891 154.476 45.5491 152.913 45.5491C151.326 45.5491 150.113 45.0941 149.273 44.1841C148.456 43.2508 148.048 41.9908 148.048 40.4041C148.048 38.5141 148.666 36.7408 149.903 35.0841C151.163 33.4274 152.633 32.5991 154.313 32.5991C154.639 32.5991 154.943 32.6341 155.223 32.7041C155.549 32.4708 155.946 32.3541 156.413 32.3541C157.043 32.3541 157.556 32.5991 157.953 33.0891C158.349 33.5791 158.548 34.2324 158.548 35.0491C158.548 36.4724 157.976 37.7208 156.833 38.7941C155.666 39.8674 154.464 40.4858 153.228 40.6491C152.434 40.7424 151.944 40.6258 151.758 40.2991C152.994 39.9491 153.974 39.3308 154.698 38.4441C155.421 37.5574 155.783 36.6124 155.783 35.6091C155.783 35.3291 155.724 35.0141 155.608 34.6641C154.348 35.0841 153.321 35.9941 152.528 37.3941C151.711 38.8174 151.303 40.2058 151.303 41.5591C151.303 43.1458 151.968 43.9391 153.298 43.9391C154.138 43.9391 155.059 43.5658 156.063 42.8191C157.066 42.0724 157.871 41.2441 158.478 40.3341Z" fill="#00B1D4"/>
<defs>
<linearGradient id="paint0_linear_272_1543" x1="52.757" y1="8.74175" x2="3.16378" y2="8.88203" gradientUnits="userSpaceOnUse">
<stop stop-color="#FF6D3F"/>
<stop offset="0.327832" stop-color="#FC6435"/>
<stop offset="1" stop-color="#F64915"/>
</linearGradient>
<linearGradient id="paint1_linear_272_1543" x1="0.652481" y1="12.8103" x2="47.9932" y2="12.3284" gradientUnits="userSpaceOnUse">
<stop stop-color="#F64510"/>
<stop offset="0.691404" stop-color="#FA5725" stop-opacity="0.94"/>
<stop offset="1" stop-color="#FF6D3F" stop-opacity="0.82"/>
</linearGradient>
</defs>
</svg>
